<svg width="151" height="45" viewBox="0 0 151 45" fill="none" xmlns="http://www.w3.org/2000/svg">
<path d="M149.505 39.1976C149.505 39.757 149.395 40.3108 149.18 40.8276C148.966 41.3443 148.652 41.8138 148.256 42.2091C147.86 42.6044 147.391 42.9179 146.873 43.1316C146.356 43.3452 145.802 43.4549 145.243 43.4543H5.75724C4.62671 43.4555 3.54199 43.0077 2.74164 42.2094C1.94129 41.4112 1.49085 40.3278 1.48938 39.1976V5.25154C1.49085 4.1208 1.94112 3.03685 2.7413 2.23771C3.54149 1.43857 4.6262 0.989551 5.75724 0.989258H145.242C145.801 0.989258 146.356 1.09951 146.873 1.31373C147.39 1.52794 147.86 1.84192 148.256 2.23772C148.652 2.63352 148.966 3.1034 149.18 3.62052C149.394 4.13764 149.504 4.69187 149.504 5.25154L149.505 39.1976Z" fill="white"/>
<path d="M145.243 44.4445H5.75729C4.3646 44.4442 3.0289 43.8916 2.04329 42.9079C1.05768 41.9242 0.50265 40.5898 0.5 39.1975L0.5 5.25256C0.50206 3.85955 1.05672 2.52423 2.0423 1.53954C3.02788 0.55484 4.36391 0.00117575 5.75729 0L145.242 0C146.635 0.00176243 147.971 0.555615 148.956 1.54018C149.941 2.52475 150.496 3.85973 150.499 5.25256V39.1975C150.501 42.0916 148.139 44.4445 145.243 44.4445Z" fill="#A6A6A6"/>
<path d="M149.505 39.1976C149.505 39.757 149.395 40.3108 149.18 40.8276C148.966 41.3443 148.652 41.8138 148.256 42.2091C147.86 42.6044 147.391 42.9179 146.873 43.1316C146.356 43.3452 145.802 43.4549 145.243 43.4543H5.75724C4.62671 43.4555 3.54199 43.0077 2.74164 42.2094C1.94129 41.4112 1.49085 40.3278 1.48938 39.1976V5.25154C1.49085 4.1208 1.94112 3.03685 2.7413 2.23771C3.54149 1.43857 4.6262 0.989551 5.75724 0.989258H145.242C145.801 0.989258 146.356 1.09951 146.873 1.31373C147.39 1.52794 147.86 1.84192 148.256 2.23772C148.652 2.63352 148.966 3.1034 149.18 3.62052C149.394 4.13764 149.504 4.69187 149.504 5.25154L149.505 39.1976Z" fill="black"/>
<path d="M33.9936 21.9886C33.9614 18.4065 36.9274 16.6638 37.0631 16.5827C35.3833 14.1343 32.7796 13.7997 31.8647 13.773C29.678 13.543 27.5568 15.0812 26.4429 15.0812C25.3067 15.0812 23.5913 13.7953 21.7426 13.8331C19.3635 13.8697 17.1379 15.2468 15.9172 17.3851C13.3981 21.7452 15.2768 28.1526 17.6904 31.6769C18.8977 33.404 20.3085 35.3301 22.155 35.2623C23.9615 35.1889 24.6364 34.112 26.8164 34.112C28.9765 34.112 29.6102 35.2623 31.4934 35.219C33.4322 35.189 34.6529 33.4851 35.818 31.7436C37.2132 29.7663 37.7735 27.8169 37.7957 27.7169C37.7512 27.7013 34.0314 26.2809 33.9936 21.9886ZM30.4362 11.4546C31.4078 10.2398 32.0726 8.58716 31.8881 6.91003C30.4817 6.97227 28.723 7.88253 27.7102 9.07063C26.8142 10.1176 26.0138 11.8336 26.2205 13.4474C27.8003 13.5652 29.4223 12.6505 30.4362 11.4546Z" fill="white"/>
<path d="M145.243 -6.10352e-05H70.53L99.7936 44.4444H145.243C146.636 44.4432 147.971 43.8899 148.957 42.9057C149.942 41.9215 150.497 40.5867 150.5 39.1941V5.2525C150.498 3.85958 149.943 2.52443 148.957 1.5398C147.972 0.555167 146.636 0.00140817 145.243 -6.10352e-05Z" fill="url(#paint0_linear_2137_11179)"/>
<path d="M60.16 35.0147H57.6353L56.2523 30.6702H51.4453L50.1279 35.0147H47.6699L52.4336 20.224H55.3752L60.16 35.0147ZM55.8355 28.8474L54.5848 24.9853C54.4525 24.5907 54.2035 23.6616 53.8388 22.1989H53.7943C53.6476 22.828 53.413 23.7572 53.0917 24.9853L51.8622 28.8474H55.8355ZM72.3866 29.551C72.3866 31.3648 71.8941 32.7985 70.908 33.851C70.0253 34.788 68.9281 35.2559 67.6196 35.2559C66.2066 35.2559 65.1905 34.7524 64.5735 33.7432V39.3392H62.2033V27.8549C62.2033 26.7157 62.1733 25.5476 62.1155 24.3495H64.2L64.3323 26.04H64.3767C65.1672 24.7663 66.3667 24.1295 67.9765 24.1295C69.2349 24.1295 70.2855 24.6263 71.1259 25.621C71.9653 26.6179 72.3866 27.9272 72.3866 29.551ZM69.972 29.6377C69.972 28.5996 69.7385 27.7438 69.2694 27.0692C68.7569 26.3679 68.0687 26.0167 67.206 26.0167C66.6213 26.0167 66.0899 26.2123 65.6152 26.5979C65.1394 26.9869 64.8281 27.4949 64.6825 28.1239C64.6174 28.3592 64.5805 28.6013 64.5724 28.8452V30.6246C64.5724 31.3993 64.8103 32.0539 65.2861 32.5896C65.7619 33.1231 66.38 33.3909 67.1405 33.3909C68.0332 33.3909 68.728 33.0453 69.2249 32.3595C69.723 31.6716 69.972 30.7646 69.972 29.6377ZM84.6566 29.551C84.6566 31.3648 84.1641 32.7985 83.178 33.851C82.2942 34.788 81.1981 35.2559 79.8885 35.2559C78.4755 35.2559 77.4594 34.7524 76.8424 33.7432V39.3392H74.4722V27.8549C74.4722 26.7157 74.4422 25.5476 74.3844 24.3495H76.4688L76.6011 26.04H76.6456C77.4349 24.7663 78.6344 24.1295 80.2453 24.1295C81.5027 24.1295 82.5532 24.6263 83.3959 25.621C84.2341 26.6179 84.6566 27.9272 84.6566 29.551ZM82.2408 29.6377C82.2408 28.5996 82.0063 27.7438 81.5371 27.0692C81.0246 26.3679 80.3387 26.0167 79.476 26.0167C78.8913 26.0167 78.3599 26.2123 77.8829 26.5979C77.4071 26.9869 77.0969 27.4949 76.9513 28.1239C76.879 28.4173 76.8401 28.6563 76.8401 28.8452V30.6246C76.8401 31.3993 77.0792 32.0539 77.5527 32.5896C78.0286 33.122 78.6467 33.3909 79.4093 33.3909C80.3031 33.3909 80.9979 33.0453 81.4938 32.3595C81.9918 31.6716 82.2408 30.7646 82.2408 29.6377ZM98.3751 30.8658C98.3751 32.125 97.9349 33.1486 97.06 33.9388C96.0972 34.8013 94.7532 35.2337 93.03 35.2337C91.438 35.2337 90.1618 34.9269 89.1991 34.3123L89.7471 32.3373C90.7866 32.953 91.9283 33.2598 93.1712 33.2598C94.065 33.2598 94.7598 33.0575 95.2557 32.6563C95.7526 32.2539 96.0038 31.716 96.0038 31.0447C96.0038 30.4434 95.7959 29.94 95.3879 29.5299C94.9777 29.1209 94.2996 28.7396 93.3468 28.3895C90.7566 27.4237 89.4603 26.0111 89.4603 24.1528C89.4603 22.9391 89.9183 21.9455 90.8321 21.1687C91.746 20.3929 92.9577 20.005 94.4652 20.005C95.8115 20.005 96.9332 20.2395 97.8237 20.7074L97.229 22.6391C96.3907 22.1856 95.4447 21.9589 94.3863 21.9589C93.5503 21.9589 92.8944 22.1645 92.4252 22.5735C92.0306 22.9391 91.8305 23.3848 91.8305 23.9139C91.8305 24.4974 92.0584 24.9819 92.5119 25.362C92.9055 25.7121 93.6237 26.0934 94.662 26.5024C95.936 27.0158 96.8721 27.6138 97.4713 28.3006C98.075 28.9875 98.3751 29.8444 98.3751 30.8658ZM106.232 26.1278H103.619V31.3059C103.619 32.6229 104.079 33.2798 105.002 33.2798C105.426 33.2798 105.777 33.2442 106.055 33.1697L106.12 34.9691C105.654 35.1436 105.039 35.2314 104.277 35.2314C103.341 35.2314 102.61 34.9458 102.082 34.3745C101.556 33.8033 101.291 32.8463 101.291 31.4993V26.1234H99.7347V24.3451H101.291V22.3923L103.619 21.6899V24.3451H106.232V26.1278ZM117.996 29.5943C117.996 31.2337 117.527 32.5796 116.591 33.6321C115.611 34.7157 114.308 35.2559 112.684 35.2559C111.116 35.2559 109.87 34.7368 108.941 33.6999C108.011 32.6607 107.547 31.3515 107.547 29.7721C107.547 28.1195 108.027 26.7658 108.984 25.7132C109.944 24.6596 111.235 24.1328 112.86 24.1328C114.425 24.1328 115.682 24.653 116.634 25.691C117.543 26.698 117.996 27.9983 117.996 29.5943ZM115.539 29.6488C115.539 28.6718 115.328 27.8338 114.904 27.1325C114.407 26.2856 113.696 25.8622 112.774 25.8622C111.825 25.8622 111.096 26.2856 110.601 27.1325C110.176 27.8338 109.965 28.6863 109.965 29.6932C109.965 30.6713 110.176 31.5115 110.601 32.2106C111.113 33.0575 111.828 33.4809 112.754 33.4809C113.66 33.4809 114.37 33.0486 114.884 32.1895C115.32 31.4715 115.539 30.6279 115.539 29.6488ZM125.703 26.4334C125.457 26.389 125.207 26.367 124.956 26.3679C124.122 26.3679 123.478 26.6813 123.024 27.3126C122.63 27.8683 122.433 28.5707 122.433 29.4187V35.0147H120.062V27.7082C120.065 26.5887 120.042 25.4692 119.993 24.3506H122.058L122.145 26.3912H122.21C122.461 25.6899 122.855 25.1242 123.395 24.7007C123.89 24.3307 124.491 24.1304 125.108 24.1295C125.327 24.1295 125.525 24.145 125.701 24.1728L125.703 26.4334ZM136.303 29.1775C136.309 29.5377 136.28 29.8977 136.217 30.2523H129.106C129.133 31.3059 129.478 32.1128 130.138 32.6685C130.737 33.1642 131.512 33.4131 132.464 33.4131C133.516 33.4131 134.477 33.2464 135.341 32.9097L135.712 34.5535C134.703 34.9936 133.511 35.2125 132.136 35.2125C130.481 35.2125 129.183 34.7257 128.238 33.7544C127.295 32.7819 126.823 31.4748 126.823 29.8377C126.823 28.2306 127.262 26.8913 128.141 25.8233C129.062 24.683 130.306 24.1128 131.871 24.1128C133.409 24.1128 134.572 24.683 135.363 25.8233C135.989 26.7269 136.303 27.8472 136.303 29.1775ZM134.043 28.5629C134.06 27.8594 133.904 27.2537 133.583 26.7413C133.173 26.0811 132.541 25.7521 131.695 25.7521C130.921 25.7521 130.289 26.0733 129.809 26.718C129.414 27.2303 129.18 27.8461 129.107 28.5607L134.043 28.5629Z" fill="white"/>
<path d="M50.7616 14.9932C50.1023 14.9932 49.532 14.961 49.0573 14.9065V7.75563C49.7212 7.6531 50.3922 7.60256 51.064 7.60448C53.7821 7.60448 55.0339 8.94151 55.0339 11.121C55.0339 13.635 53.5553 14.9932 50.7616 14.9932ZM51.1596 8.5214C50.7927 8.5214 50.4803 8.54362 50.2213 8.59697V14.0329C50.3613 14.0551 50.6304 14.0651 51.0084 14.0651C52.7893 14.0651 53.8032 13.0515 53.8032 11.1532C53.8032 9.46054 52.886 8.5214 51.1596 8.5214ZM58.9349 15.0476C57.4029 15.0476 56.4102 13.904 56.4102 12.3513C56.4102 10.7331 57.4241 9.57947 59.0216 9.57947C60.5313 9.57947 61.5463 10.6687 61.5463 12.2658C61.5463 13.904 60.5002 15.0476 58.9349 15.0476ZM58.9793 10.4308C58.1378 10.4308 57.5986 11.2177 57.5986 12.318C57.5986 13.3972 58.1489 14.1841 58.9682 14.1841C59.7876 14.1841 60.3379 13.3427 60.3379 12.2958C60.3379 11.2288 59.7987 10.4308 58.9793 10.4308ZM70.2821 9.68727L68.6423 14.9287H67.574L66.8947 12.6525C66.7258 12.0958 66.5852 11.5308 66.4734 10.9598H66.4512C66.3656 11.5311 66.2032 12.1035 66.0309 12.6525L65.3083 14.9287H64.2288L62.6858 9.68727H63.8831L64.4768 12.1791C64.6168 12.7726 64.7347 13.3327 64.8325 13.8618H64.8547C64.9403 13.4205 65.0804 12.8693 65.2861 12.1902L66.0309 9.68839H66.9803L67.6929 12.1368C67.8653 12.7303 68.0053 13.3127 68.1143 13.8629H68.1454C68.221 13.3238 68.34 12.7515 68.5012 12.1368L69.1382 9.68839L70.2821 9.68727ZM76.3187 14.9287H75.1536V11.919C75.1536 10.9921 74.7979 10.5275 74.0964 10.5275C73.406 10.5275 72.9313 11.121 72.9313 11.8112V14.9287H71.7663V11.1855C71.7663 10.722 71.7551 10.2252 71.7229 9.68616H72.7479L72.8024 10.4953H72.8346C73.1481 9.93512 73.784 9.57947 74.4966 9.57947C75.5972 9.57947 76.3198 10.4208 76.3198 11.7901L76.3187 14.9287ZM79.5316 14.9287H78.3654V7.28217H79.5316V14.9287ZM83.7794 15.0476C82.2486 15.0476 81.2547 13.904 81.2547 12.3513C81.2547 10.7331 82.2686 9.57947 83.865 9.57947C85.3758 9.57947 86.3897 10.6687 86.3897 12.2658C86.3908 13.904 85.3436 15.0476 83.7794 15.0476ZM83.8228 10.4308C82.9812 10.4308 82.442 11.2177 82.442 12.318C82.442 13.3972 82.9934 14.1841 83.8106 14.1841C84.631 14.1841 85.1802 13.3427 85.1802 12.2958C85.1813 11.2288 84.6432 10.4308 83.8228 10.4308ZM90.9833 14.9287L90.8988 14.3252H90.8677C90.512 14.8109 89.9928 15.0476 89.3346 15.0476C88.3952 15.0476 87.7282 14.3897 87.7282 13.505C87.7282 12.2113 88.8499 11.5422 90.7921 11.5422V11.4455C90.7921 10.7553 90.4263 10.4097 89.7037 10.4097C89.1868 10.4097 88.7332 10.5397 88.3341 10.7987L88.0973 10.0329C88.582 9.73062 89.1868 9.57947 89.8972 9.57947C91.2668 9.57947 91.9583 10.3019 91.9583 11.7478V13.6784C91.9583 14.2074 91.9816 14.6175 92.0339 14.9298L90.9833 14.9287ZM90.8232 12.318C89.5292 12.318 88.88 12.6314 88.88 13.375C88.88 13.9251 89.2146 14.1941 89.6793 14.1941C90.2718 14.1941 90.8232 13.7417 90.8232 13.1271V12.318ZM97.6158 14.9287L97.5613 14.0874H97.5291C97.1945 14.7231 96.6319 15.0476 95.8459 15.0476C94.5819 15.0476 93.6459 13.9362 93.6459 12.3725C93.6459 10.7331 94.6164 9.57836 95.9415 9.57836C96.643 9.57836 97.14 9.81509 97.4201 10.2908H97.4435V7.28217H98.6097V13.5161C98.6097 14.0229 98.6219 14.4975 98.653 14.9287H97.6158ZM97.4435 11.8445C97.4435 11.111 96.9577 10.4853 96.2161 10.4853C95.3523 10.4853 94.8243 11.251 94.8243 12.3291C94.8243 13.3861 95.3724 14.1096 96.1928 14.1096C96.9254 14.1096 97.4435 13.4728 97.4435 12.7181V11.8445ZM106.004 15.0476C104.473 15.0476 103.48 13.904 103.48 12.3513C103.48 10.7331 104.494 9.57947 106.09 9.57947C107.601 9.57947 108.615 10.6687 108.615 12.2658C108.616 13.904 107.57 15.0476 106.004 15.0476ZM106.047 10.4308C105.207 10.4308 104.667 11.2177 104.667 12.318C104.667 13.3972 105.218 14.1841 106.036 14.1841C106.856 14.1841 107.406 13.3427 107.406 12.2958C107.408 11.2288 106.869 10.4308 106.047 10.4308ZM114.881 14.9287H113.714V11.919C113.714 10.9921 113.359 10.5275 112.657 10.5275C111.967 10.5275 111.493 11.121 111.493 11.8112V14.9287H110.327V11.1855C110.327 10.722 110.316 10.2252 110.284 9.68616H111.309L111.363 10.4953H111.395C111.708 9.93512 112.345 9.57836 113.056 9.57836C114.157 9.57836 114.881 10.4197 114.881 11.789V14.9287ZM122.719 10.5608H121.438V13.106C121.438 13.754 121.662 14.0774 122.116 14.0774C122.321 14.0774 122.494 14.0551 122.633 14.0229L122.665 14.9076C122.439 14.9943 122.137 15.0376 121.761 15.0376C120.843 15.0376 120.294 14.5308 120.294 13.2038V10.5608H119.529V9.68727H120.294V8.72701L121.438 8.38136V9.68616H122.719V10.5608ZM128.887 14.9287H127.723V11.9412C127.723 11.0032 127.369 10.5286 126.666 10.5286C126.062 10.5286 125.5 10.9387 125.5 11.769V14.9287H124.336V7.28217H125.5V10.4308H125.523C125.89 9.85954 126.421 9.57836 127.1 9.57836C128.209 9.57836 128.887 10.4408 128.887 11.8112V14.9287ZM135.206 12.5881H131.71C131.732 13.5806 132.389 14.1407 133.362 14.1407C133.879 14.1407 134.355 14.054 134.775 13.8929L134.956 14.702C134.46 14.9176 133.877 15.0254 133.197 15.0254C131.557 15.0254 130.587 13.9896 130.587 12.3836C130.587 10.7765 131.581 9.56835 133.066 9.56835C134.406 9.56835 135.246 10.5608 135.246 12.0602C135.254 12.2371 135.24 12.4143 135.206 12.5881ZM134.138 11.7578C134.138 10.9487 133.73 10.3775 132.985 10.3775C132.316 10.3775 131.786 10.9598 131.711 11.7578H134.138Z" fill="white"/>
<defs>
<linearGradient id="paint0_linear_2137_11179" x1="110.514" y1="44.5624" x2="110.514" y2="-115.726" gradientUnits="userSpaceOnUse">
<stop stop-color="#1A1A1A" stop-opacity="0.1"/>
<stop offset="0.123" stop-color="#212121" stop-opacity="0.151"/>
<stop offset="0.308" stop-color="#353535" stop-opacity="0.227"/>
<stop offset="0.532" stop-color="#575757" stop-opacity="0.318"/>
<stop offset="0.783" stop-color="#858585" stop-opacity="0.421"/>
<stop offset="1" stop-color="#B3B3B3" stop-opacity="0.51"/>
</linearGradient>
</defs>
</svg>
