<svg width="151" height="45" viewBox="0 0 151 45" fill="none" xmlns="http://www.w3.org/2000/svg">
<path d="M144.944 45H6.05556C2.94444 45 0.5 42.5555 0.5 39.4444V6.1111C0.5 2.99999 2.94444 0.555542 6.05556 0.555542H144.944C148.056 0.555542 150.5 2.99999 150.5 6.1111V39.4444C150.5 42.5555 148.056 45 144.944 45Z" fill="black"/>
<path d="M144.944 1.44443C147.5 1.44443 149.611 3.55554 149.611 6.1111V39.4444C149.611 42 147.5 44.1111 144.944 44.1111H6.05556C3.5 44.1111 1.38889 42 1.38889 39.4444V6.1111C1.38889 3.55554 3.5 1.44443 6.05556 1.44443H144.944ZM144.944 0.555542H6.05556C2.94444 0.555542 0.5 3.1111 0.5 6.1111V39.4444C0.5 42.5555 2.94444 45 6.05556 45H144.944C148.056 45 150.5 42.5555 150.5 39.4444V6.1111C150.5 3.1111 148.056 0.555542 144.944 0.555542Z" fill="#A6A6A6"/>
<path d="M53.1667 11.8893C53.1667 12.7782 52.9445 13.5559 52.3889 14.1115C51.7223 14.7782 50.9445 15.1115 49.9445 15.1115C48.9445 15.1115 48.1667 14.7782 47.5001 14.1115C46.8334 13.4448 46.5001 12.667 46.5001 11.667C46.5001 10.667 46.8334 9.88926 47.5001 9.2226C48.1667 8.55593 48.9445 8.2226 49.9445 8.2226C50.3889 8.2226 50.8334 8.33371 51.2778 8.55593C51.7223 8.77815 52.0556 9.00037 52.2778 9.33371L51.7223 9.88926C51.2778 9.33371 50.7223 9.11148 49.9445 9.11148C49.2778 9.11148 48.6112 9.33371 48.1667 9.88926C47.6112 10.3337 47.3889 11.0004 47.3889 11.7782C47.3889 12.5559 47.6112 13.2226 48.1667 13.667C48.7223 14.1115 49.2778 14.4448 49.9445 14.4448C50.7223 14.4448 51.2778 14.2226 51.8334 13.667C52.1667 13.3337 52.3889 12.8893 52.3889 12.3337H49.9445V11.4448H53.1667V11.8893ZM58.2778 9.11148H55.2778V11.2226H58.0556V12.0004H55.2778V14.1115H58.2778V15.0004H54.3889V8.33371H58.2778V9.11148ZM61.9445 15.0004H61.0556V9.11148H59.1667V8.33371H63.8334V9.11148H61.9445V15.0004ZM67.0556 15.0004V8.33371H67.9445V15.0004H67.0556ZM71.7223 15.0004H70.8334V9.11148H68.9445V8.33371H73.5001V9.11148H71.6112V15.0004H71.7223ZM82.2778 14.1115C81.6112 14.7782 80.8334 15.1115 79.8334 15.1115C78.8334 15.1115 78.0556 14.7782 77.3889 14.1115C76.7223 13.4448 76.389 12.667 76.389 11.667C76.389 10.667 76.7223 9.88926 77.3889 9.2226C78.0556 8.55593 78.8334 8.2226 79.8334 8.2226C80.8334 8.2226 81.6112 8.55593 82.2778 9.2226C82.9445 9.88926 83.2778 10.667 83.2778 11.667C83.2778 12.667 82.9445 13.4448 82.2778 14.1115ZM78.0556 13.5559C78.5001 14.0004 79.1667 14.3337 79.8334 14.3337C80.5001 14.3337 81.1667 14.1115 81.6112 13.5559C82.0556 13.1115 82.3889 12.4448 82.3889 11.667C82.3889 10.8893 82.1667 10.2226 81.6112 9.77815C81.1667 9.33371 80.5001 9.00037 79.8334 9.00037C79.1667 9.00037 78.5001 9.2226 78.0556 9.77815C77.6112 10.2226 77.2778 10.8893 77.2778 11.667C77.2778 12.4448 77.5001 13.1115 78.0556 13.5559ZM84.5001 15.0004V8.33371H85.5001L88.7223 13.5559V8.33371H89.6112V15.0004H88.7223L85.2778 9.55593V15.0004H84.5001Z" fill="white" stroke="white" stroke-width="1.18519" stroke-miterlimit="10"/>
<path d="M76.1667 24.7778C73.5 24.7778 71.3889 26.7778 71.3889 29.5555C71.3889 32.2222 73.5 34.3333 76.1667 34.3333C78.8334 34.3333 80.9445 32.3333 80.9445 29.5555C80.9445 26.6667 78.8334 24.7778 76.1667 24.7778ZM76.1667 32.3333C74.7222 32.3333 73.5 31.1111 73.5 29.4444C73.5 27.7778 74.7222 26.5555 76.1667 26.5555C77.6111 26.5555 78.8334 27.6667 78.8334 29.4444C78.8334 31.1111 77.6111 32.3333 76.1667 32.3333ZM65.8334 24.7778C63.1667 24.7778 61.0556 26.7778 61.0556 29.5555C61.0556 32.2222 63.1667 34.3333 65.8334 34.3333C68.5 34.3333 70.6111 32.3333 70.6111 29.5555C70.6111 26.6667 68.5 24.7778 65.8334 24.7778ZM65.8334 32.3333C64.3889 32.3333 63.1667 31.1111 63.1667 29.4444C63.1667 27.7778 64.3889 26.5555 65.8334 26.5555C67.2778 26.5555 68.5 27.6667 68.5 29.4444C68.5 31.1111 67.2778 32.3333 65.8334 32.3333ZM53.5 26.2222V28.2222H58.2778C58.1667 29.3333 57.7222 30.2222 57.1667 30.7778C56.5 31.4444 55.3889 32.2222 53.5 32.2222C50.5 32.2222 48.2778 29.8889 48.2778 26.8889C48.2778 23.8889 50.6111 21.5555 53.5 21.5555C55.0556 21.5555 56.2778 22.2222 57.1667 23L58.6111 21.5555C57.3889 20.4444 55.8334 19.5555 53.6111 19.5555C49.6111 19.5555 46.1667 22.8889 46.1667 26.8889C46.1667 30.8889 49.6111 34.2222 53.6111 34.2222C55.8334 34.2222 57.3889 33.5555 58.7222 32.1111C60.0556 30.7778 60.5 28.8889 60.5 27.4444C60.5 27 60.5 26.5555 60.3889 26.2222H53.5ZM103.944 27.7778C103.5 26.6667 102.389 24.7778 99.9445 24.7778C97.5 24.7778 95.5 26.6667 95.5 29.5555C95.5 32.2222 97.5 34.3333 100.167 34.3333C102.278 34.3333 103.611 33 104.056 32.2222L102.5 31.1111C101.944 31.8889 101.278 32.4444 100.167 32.4444C99.0556 32.4444 98.3889 32 97.8334 31L104.167 28.3333L103.944 27.7778ZM97.5 29.3333C97.5 27.5555 98.9445 26.5555 99.9445 26.5555C100.722 26.5555 101.5 27 101.722 27.5555L97.5 29.3333ZM92.2778 33.8889H94.3889V20H92.2778V33.8889ZM88.9445 25.7778C88.3889 25.2222 87.5 24.6667 86.3889 24.6667C84.0556 24.6667 81.8334 26.7778 81.8334 29.4444C81.8334 32.1111 83.9445 34.1111 86.3889 34.1111C87.5 34.1111 88.3889 33.5555 88.8334 33H88.9445V33.6667C88.9445 35.4444 87.9445 36.4444 86.3889 36.4444C85.1667 36.4444 84.2778 35.5555 84.0556 34.7778L82.2778 35.5555C82.8334 36.7778 84.1667 38.3333 86.5 38.3333C88.9445 38.3333 90.9445 36.8889 90.9445 33.4444V25H88.9445V25.7778ZM86.5 32.3333C85.0556 32.3333 83.8334 31.1111 83.8334 29.4444C83.8334 27.7778 85.0556 26.5555 86.5 26.5555C87.9445 26.5555 89.0556 27.7778 89.0556 29.4444C89.0556 31.1111 87.9445 32.3333 86.5 32.3333ZM113.611 20H108.611V33.8889H110.722V28.6667H113.611C115.944 28.6667 118.167 27 118.167 24.3333C118.167 21.6667 115.944 20 113.611 20ZM113.722 26.6667H110.722V21.8889H113.722C115.278 21.8889 116.167 23.2222 116.167 24.2222C116.056 25.4444 115.167 26.6667 113.722 26.6667ZM126.5 24.6667C124.944 24.6667 123.389 25.3333 122.833 26.7778L124.722 27.5555C125.167 26.7778 125.833 26.5555 126.611 26.5555C127.722 26.5555 128.722 27.2222 128.833 28.3333V28.4444C128.5 28.2222 127.611 27.8889 126.722 27.8889C124.722 27.8889 122.722 29 122.722 31C122.722 32.8889 124.389 34.1111 126.167 34.1111C127.611 34.1111 128.278 33.4444 128.833 32.7778H128.944V33.8889H130.944V28.5555C130.722 26.1111 128.833 24.6667 126.5 24.6667ZM126.278 32.3333C125.611 32.3333 124.611 32 124.611 31.1111C124.611 30 125.833 29.6667 126.833 29.6667C127.722 29.6667 128.167 29.8889 128.722 30.1111C128.5 31.4444 127.389 32.3333 126.278 32.3333ZM137.944 25L135.611 31H135.5L133.056 25H130.833L134.5 33.4444L132.389 38.1111H134.5L140.167 25H137.944ZM119.278 33.8889H121.389V20H119.278V33.8889Z" fill="white"/>
<path d="M12.0556 8.88873C11.7223 9.22207 11.6111 9.77762 11.6111 10.4443V34.9998C11.6111 35.6665 11.8334 36.2221 12.1667 36.5554L12.2778 36.6665L26.0556 22.8887V22.6665L12.0556 8.88873Z" fill="url(#paint0_linear_2137_11166)"/>
<path d="M30.5 27.5548L25.9445 22.9992V22.6659L30.5 18.1104L30.6111 18.2215L36.0556 21.3326C37.6111 22.2215 37.6111 23.6659 36.0556 24.5548L30.5 27.5548Z" fill="url(#paint1_linear_2137_11166)"/>
<path d="M30.611 27.445L25.9444 22.7784L12.0555 36.6673C12.611 37.2228 13.3888 37.2228 14.3888 36.7784L30.611 27.445Z" fill="url(#paint2_linear_2137_11166)"/>
<path d="M30.611 18.111L14.3888 8.88875C13.3888 8.33319 12.611 8.4443 12.0555 8.99986L25.9444 22.7776L30.611 18.111Z" fill="url(#paint3_linear_2137_11166)"/>
<path opacity="0.2" d="M30.4999 27.3331L14.3888 36.4442C13.4999 36.9997 12.7221 36.8886 12.1666 36.4442L12.0555 36.5553L12.1666 36.6664C12.7221 37.1108 13.4999 37.222 14.3888 36.6664L30.4999 27.3331Z" fill="black"/>
<path opacity="0.12" d="M12.0556 36.445C11.7223 36.1117 11.6111 35.5562 11.6111 34.8895V35.0006C11.6111 35.6673 11.8334 36.2228 12.1667 36.5562V36.445H12.0556ZM36.0556 24.2228L30.5 27.3339L30.6111 27.445L36.0556 24.3339C36.8334 23.8895 37.1667 23.3339 37.1667 22.7784C37.1667 23.3339 36.7223 23.7784 36.0556 24.2228Z" fill="black"/>
<path opacity="0.25" d="M14.3889 9.00007L36.0556 21.3334C36.7223 21.7778 37.1667 22.2223 37.1667 22.7778C37.1667 22.2223 36.8334 21.6667 36.0556 21.2223L14.3889 8.88896C12.8334 8.00007 11.6111 8.66674 11.6111 10.4445V10.5556C11.6111 8.88896 12.8334 8.11118 14.3889 9.00007Z" fill="white"/>
<defs>
<linearGradient id="paint0_linear_2137_11166" x1="24.7223" y1="10.2332" x2="6.07448" y2="28.8798" gradientUnits="userSpaceOnUse">
<stop stop-color="#00A0FF"/>
<stop offset="0.007" stop-color="#00A1FF"/>
<stop offset="0.26" stop-color="#00BEFF"/>
<stop offset="0.512" stop-color="#00D2FF"/>
<stop offset="0.76" stop-color="#00DFFF"/>
<stop offset="1" stop-color="#00E3FF"/>
</linearGradient>
<linearGradient id="paint1_linear_2137_11166" x1="38.0933" y1="22.7781" x2="11.2078" y2="22.7781" gradientUnits="userSpaceOnUse">
<stop stop-color="#FFE000"/>
<stop offset="0.409" stop-color="#FFBD00"/>
<stop offset="0.775" stop-color="#FFA500"/>
<stop offset="1" stop-color="#FF9C00"/>
</linearGradient>
<linearGradient id="paint2_linear_2137_11166" x1="28.0855" y1="25.3295" x2="2.79882" y2="50.6162" gradientUnits="userSpaceOnUse">
<stop stop-color="#FF3A44"/>
<stop offset="1" stop-color="#C31162"/>
</linearGradient>
<linearGradient id="paint3_linear_2137_11166" x1="8.6077" y1="0.750972" x2="19.8999" y2="12.0432" gradientUnits="userSpaceOnUse">
<stop stop-color="#32A071"/>
<stop offset="0.069" stop-color="#2DA771"/>
<stop offset="0.476" stop-color="#15CF74"/>
<stop offset="0.801" stop-color="#06E775"/>
<stop offset="1" stop-color="#00F076"/>
</linearGradient>
</defs>
</svg>
