<?xml version="1.0" encoding="UTF-8"?>
<svg width="200" height="60" viewBox="0 0 200 60" fill="none" xmlns="http://www.w3.org/2000/svg">
  <g>
    <path d="M46.5,15c-8.3,0-15,6.7-15,15s6.7,15,15,15s15-6.7,15-15S54.8,15,46.5,15z M46.5,41c-6.1,0-11-4.9-11-11s4.9-11,11-11s11,4.9,11,11S52.6,41,46.5,41z" fill="#2D7D90"/>
    <path d="M46.5,23c-3.9,0-7,3.1-7,7s3.1,7,7,7s7-3.1,7-7S50.4,23,46.5,23z M46.5,33c-1.7,0-3-1.3-3-3s1.3-3,3-3s3,1.3,3,3S48.2,33,46.5,33z" fill="#2D7D90"/>
    <path d="M46.5,19c-1.1,0-2,0.9-2,2s0.9,2,2,2s2-0.9,2-2S47.6,19,46.5,19z" fill="#2D7D90"/>
    <path d="M54.5,27c-1.1,0-2,0.9-2,2s0.9,2,2,2s2-0.9,2-2S55.6,27,54.5,27z" fill="#2D7D90"/>
    <path d="M46.5,35c-1.1,0-2,0.9-2,2s0.9,2,2,2s2-0.9,2-2S47.6,35,46.5,35z" fill="#2D7D90"/>
    <path d="M38.5,27c-1.1,0-2,0.9-2,2s0.9,2,2,2s2-0.9,2-2S39.6,27,38.5,27z" fill="#2D7D90"/>
  </g>
  <path d="M70 25.5h2.5v12h-2.5v-12zm5.5 0h2.7l5.3 7.8v-7.8h2.5v12h-2.5l-5.5-8v8h-2.5v-12zm15 0h8.5v2.2h-6v2.6h5.5v2.2h-5.5v2.8h6.2v2.2h-8.7v-12zm16.5 0h2.5l4.2 12h-2.7l-.9-2.7h-4l-.9 2.7h-2.6l4.4-12zm2.5 7.3l-1.3-4-1.4 4h2.7zm7-7.3h2.5v9.8h5.7v2.2h-8.2v-12zm9.5 0h8.5v2.2h-6v2.6h5.5v2.2h-5.5v2.8h6.2v2.2h-8.7v-12zm17.5 7.5l-4.2-7.5h2.9l2.6 4.8 2.6-4.8h2.8l-4.2 7.4v4.6h-2.5v-4.5z" fill="#2D7D90"/>
  <path d="M145 35.5h2.5l.8-2h4.4l.8 2h2.6l-4.2-10h-2.7l-4.2 10zm6.9-4h-2.8l1.4-3.5 1.4 3.5zm8.1-6h2.5v7.8h5.5v2.2h-8v-10zm9.5 0h2.5v10h-2.5v-10zm4.5 0h2.5l5.5 6.8v-6.8h2.5v10h-2.3l-5.7-7v7h-2.5v-10z" fill="#2D7D90"/>
</svg>
